HIERARCHY
ROOT Hips
{
	OFFSET -0.001795 -0.223333 0.028219
	CHANNELS 6 Xposition Yposition Zposition Zrotation Yrotation Xrotation 
	JOINT LeftUpLeg
	{
		OFFSET 0.069520 -0.091406 -0.006815
		CHANNELS 3 Zrotation Yrotation Xrotation
		JOINT LeftLeg
		{
			OFFSET 0.034277 -0.375199 -0.004496
			CHANNELS 3 Zrotation Yrotation Xrotation
			JOINT LeftFoot
			{
				OFFSET -0.013596 -0.397961 -0.043693
				CHANNELS 3 Zrotation Yrotation Xrotation
				JOINT LeftToe
				{
					OFFSET 0.026358 -0.055791 0.119288
					CHANNELS 3 Zrotation Yrotation Xrotation
					End Site
					{
						OFFSET 0.000000 0.000000 0.000000
					}
				}
			}
		}
	}
	JOINT RightUpLeg
	{
		OFFSET -0.067670 -0.090522 -0.004320
		CHANNELS 3 Zrotation Yrotation Xrotation
		JOINT RightLeg
		{
			OFFSET -0.038290 -0.382569 -0.008850
			CHANNELS 3 Zrotation Yrotation Xrotation
			JOINT RightFoot
			{
				OFFSET 0.015774 -0.398415 -0.042312
				CHANNELS 3 Zrotation Yrotation Xrotation
				JOINT RightToe
				{
					OFFSET -0.025372 -0.048144 0.123348
					CHANNELS 3 Zrotation Yrotation Xrotation
					End Site
					{
						OFFSET 0.000000 0.000000 0.000000
					}
				}
			}
		}
	}
	JOINT Spine
	{
		OFFSET -0.002533 0.108963 -0.026696
		CHANNELS 3 Zrotation Yrotation Xrotation
		JOINT Spine1
		{
			OFFSET 0.005487 0.135180 0.001092
			CHANNELS 3 Zrotation Yrotation Xrotation
			JOINT Spine2
			{
				OFFSET 0.001457 0.052922 0.025425
				CHANNELS 3 Zrotation Yrotation Xrotation
				JOINT Neck
				{
					OFFSET -0.002778 0.213870 -0.042857
					CHANNELS 3 Zrotation Yrotation Xrotation
					JOINT Head
					{
						OFFSET 0.005152 0.064970 0.051349
						CHANNELS 3 Zrotation Yrotation Xrotation
						End Site
						{
							OFFSET 0.000000 0.000000 0.000000
						}
					}
				}
				JOINT LeftShoulder
				{
					OFFSET 0.078845 0.121749 -0.034090
					CHANNELS 3 Zrotation Yrotation Xrotation
					JOINT LeftArm
					{
						OFFSET 0.090977 0.030469 -0.008868
						CHANNELS 3 Zrotation Yrotation Xrotation
						JOINT LeftForeArm
						{
							OFFSET 0.259612 -0.012772 -0.027456
							CHANNELS 3 Zrotation Yrotation Xrotation
							JOINT LeftHand
							{
								OFFSET 0.249234 0.008986 -0.001171
								CHANNELS 3 Zrotation Yrotation Xrotation
								End Site
								{
									OFFSET 0.000000 0.000000 0.000000
								}
							}
						}
					}
				}
				JOINT RightShoulder
				{
					OFFSET -0.081759 0.118833 -0.038615
					CHANNELS 3 Zrotation Yrotation Xrotation
					JOINT RightArm
					{
						OFFSET -0.096012 0.032551 -0.009143
						CHANNELS 3 Zrotation Yrotation Xrotation
						JOINT RightForeArm
						{
							OFFSET -0.253742 -0.013329 -0.021401
							CHANNELS 3 Zrotation Yrotation Xrotation
							JOINT RightHand
							{
								OFFSET -0.255298 0.007772 -0.005559
								CHANNELS 3 Zrotation Yrotation Xrotation
								End Site
								{
									OFFSET 0.000000 0.000000 0.000000
								}
							}
						}
					}
				}
			}
		}
	}
}
MOTION
Frames: 5
Frame Time: 0.050000
-0.229367 0.938396 0.130302 -5.713071 62.203036 7.434105 13.565295 -4.195987 -24.473478 -4.891184 -0.799720 9.159951 7.065123 19.989393 17.708532 0.000000 0.000000 0.000000 -7.300754 -4.052149 -21.995357 3.651469 -1.430684 4.244086 -7.968853 -9.426820 20.900448 0.000000 0.000000 0.000000 -1.271224 -5.259798 27.732351 -2.493929 2.125232 -21.742234 -3.869479 13.862669 25.356308 23.293987 -1.085974 -41.560660 0.000000 0.000000 0.000000 -1.474074 -39.114000 7.658245 -16.433964 -52.804685 -4.340852 18.150299 -27.233690 -6.546149 0.000000 0.000000 0.000000 13.513025 13.465415 16.034552 60.266945 62.431421 34.778166 -34.950507 20.485001 -3.792960 0.000000 0.000000 0.000000 
-0.230049 0.938511 0.129966 -5.246202 62.218237 8.123779 13.222428 -4.259138 -24.839437 -4.746283 -0.801061 9.163058 7.328396 20.289016 17.697536 0.000000 0.000000 0.000000 -7.543343 -4.271953 -22.439967 3.536924 -1.424927 4.553202 -7.547930 -8.860149 20.502030 0.000000 0.000000 0.000000 -1.012799 -5.529633 28.233978 -2.560337 2.120754 -21.877544 -3.910815 13.571237 25.148526 22.493721 -0.703366 -41.722518 0.000000 0.000000 0.000000 -2.139573 -39.635179 7.758999 -17.112045 -52.732839 -3.791800 18.319138 -26.284686 -6.263453 0.000000 0.000000 0.000000 13.927579 13.293845 16.087033 59.756119 61.487539 33.425981 -35.153257 21.984819 -4.100694 0.000000 0.000000 0.000000 
-0.230878 0.938608 0.129895 -4.830726 62.152077 8.755885 12.870586 -4.252668 -24.885874 -4.589886 -0.787609 9.007011 7.335270 20.259870 17.538183 0.000000 0.000000 0.000000 -7.654201 -4.427803 -22.891145 3.242737 -1.367387 4.907865 -7.394993 -8.716489 20.104286 0.000000 0.000000 0.000000 -0.764384 -5.717748 28.552467 -2.598305 2.136623 -21.690043 -4.044742 13.100040 24.833723 21.900509 -0.526716 -41.476151 0.000000 0.000000 0.000000 -3.327223 -40.011655 7.767135 -17.746132 -51.832858 -2.880558 18.667887 -25.722422 -6.144338 0.000000 0.000000 0.000000 14.729852 13.210181 16.372935 58.497035 60.505757 31.312333 -35.502789 23.963217 -4.523093 0.000000 0.000000 0.000000 
-0.231936 0.938509 0.130188 -4.497161 62.429957 9.296952 12.522984 -4.292209 -25.056845 -4.241239 -0.783626 8.876323 7.373811 20.318067 17.577292 0.000000 0.000000 0.000000 -7.902544 -4.677020 -23.296619 3.241999 -1.413457 5.299437 -7.151778 -8.391403 19.749633 0.000000 0.000000 0.000000 -0.442696 -6.092113 29.176917 -2.831551 2.169075 -21.701484 -4.017215 12.613876 24.680721 21.328732 -0.307711 -41.580116 0.000000 0.000000 0.000000 -3.807169 -40.247387 7.893104 -18.140195 -51.572341 -2.468697 19.098020 -25.542988 -6.160520 0.000000 0.000000 0.000000 15.083983 13.093940 16.380654 57.528654 60.085914 30.122094 -35.789125 25.493813 -4.862678 0.000000 0.000000 0.000000 
-0.233236 0.938241 0.130889 -4.410349 62.335634 9.565230 12.426042 -4.282317 -25.052887 -4.208261 -0.778667 8.840625 7.630754 20.502623 17.429054 0.000000 0.000000 0.000000 -7.930136 -4.768327 -23.641204 3.293469 -1.460476 5.625850 -7.008998 -8.281341 19.350927 0.000000 0.000000 0.000000 -0.377593 -6.251331 29.536637 -2.709380 2.149812 -21.682078 -4.075381 12.362415 24.442342 21.097526 -0.253574 -41.601564 0.000000 0.000000 0.000000 -4.431570 -40.139515 7.832597 -19.023485 -50.757140 -1.742473 19.722000 -26.318592 -6.553265 0.000000 0.000000 0.000000 15.348073 13.040963 16.394140 56.307899 59.700317 28.850302 -36.108597 27.512273 -5.358909 0.000000 0.000000 0.000000 
